<svg width="40" height="45" viewBox="0 0 40 45" fill="none" xmlns="http://www.w3.org/2000/svg">
<path fill-rule="evenodd" clip-rule="evenodd" d="M30.4392 2.91528C30.8338 2.82808 31.1634 3.22072 31.0093 3.59426L23.14 22.6604C22.8827 23.2838 21.9976 23.2774 21.7494 22.6504L18.2539 13.8214L9.29846 8.93455C8.68998 8.6025 8.81902 7.69345 9.49587 7.54386L30.4392 2.91528ZM20.1948 13.4348L22.47 19.1813L27.3453 7.36898L20.1948 13.4348ZM26.1848 5.82049L12.9647 8.74219L18.9137 11.9885L26.1848 5.82049Z" fill="white"/>
<path d="M10.24 42.15C9.52 42.15 8.90667 41.9833 8.4 41.65C7.9 41.31 7.57333 40.8333 7.42 40.22H8.24C8.35333 40.5933 8.58333 40.8867 8.93 41.1C9.28333 41.3133 9.71667 41.42 10.23 41.42C10.5633 41.42 10.8633 41.3733 11.13 41.28C11.4033 41.18 11.62 41.0367 11.78 40.85C11.94 40.6567 12.02 40.4233 12.02 40.15C12.02 39.9233 11.9733 39.7267 11.88 39.56C11.7933 39.3867 11.6333 39.2433 11.4 39.13C11.1733 39.0167 10.8467 38.9267 10.42 38.86L9.57 38.73C8.89667 38.6233 8.39667 38.4267 8.07 38.14C7.75 37.8467 7.59 37.4267 7.59 36.88C7.59 36.48 7.70333 36.13 7.93 35.83C8.15667 35.53 8.46 35.3 8.84 35.14C9.22667 34.9733 9.66 34.89 10.14 34.89C10.5667 34.89 10.96 34.9567 11.32 35.09C11.68 35.2233 11.9833 35.4267 12.23 35.7C12.4767 35.9733 12.6433 36.32 12.73 36.74H11.91C11.8233 36.3467 11.62 36.0633 11.3 35.89C10.98 35.71 10.5933 35.62 10.14 35.62C9.62667 35.62 9.20667 35.73 8.88 35.95C8.56 36.17 8.4 36.47 8.4 36.85C8.4 37.07 8.44667 37.2533 8.54 37.4C8.63333 37.5467 8.79333 37.67 9.02 37.77C9.24667 37.87 9.56333 37.95 9.97 38.01L10.76 38.13C11.4733 38.2433 11.9967 38.46 12.33 38.78C12.6633 39.1 12.83 39.5433 12.83 40.11C12.83 40.5367 12.7167 40.9033 12.49 41.21C12.27 41.51 11.9633 41.7433 11.57 41.91C11.1767 42.07 10.7333 42.15 10.24 42.15ZM13.8779 42V34.75H14.6179V37.61C14.7979 37.3433 15.0279 37.1367 15.3079 36.99C15.5946 36.8433 15.9012 36.77 16.2279 36.77C16.6146 36.77 16.9412 36.86 17.2079 37.04C17.4812 37.22 17.6879 37.4667 17.8279 37.78C17.9746 38.0867 18.0479 38.4433 18.0479 38.85V42H17.3079V39C17.3079 38.52 17.2012 38.1433 16.9879 37.87C16.7812 37.5967 16.4712 37.46 16.0579 37.46C15.8112 37.46 15.5779 37.52 15.3579 37.64C15.1379 37.7533 14.9579 37.9233 14.8179 38.15C14.6846 38.37 14.6179 38.6433 14.6179 38.97V42H13.8779ZM20.681 42.13C20.1677 42.13 19.751 41.99 19.431 41.71C19.111 41.43 18.951 41.05 18.951 40.57C18.951 40.0567 19.1343 39.66 19.501 39.38C19.8743 39.1 20.4077 38.96 21.101 38.96H22.381V38.71C22.381 38.2567 22.2677 37.9333 22.041 37.74C21.8143 37.5467 21.5043 37.45 21.111 37.45C20.7777 37.45 20.501 37.5167 20.281 37.65C20.0677 37.7767 19.9343 37.9367 19.881 38.13H19.121C19.2077 37.7233 19.431 37.3967 19.791 37.15C20.151 36.8967 20.591 36.77 21.111 36.77C21.731 36.77 22.221 36.93 22.581 37.25C22.941 37.57 23.121 38.0733 23.121 38.76V42H22.411V41.2C22.231 41.5133 21.981 41.7467 21.661 41.9C21.3477 42.0533 21.021 42.13 20.681 42.13ZM20.821 41.47C21.061 41.47 21.301 41.4167 21.541 41.31C21.781 41.2033 21.981 41.0433 22.141 40.83C22.301 40.61 22.381 40.3367 22.381 40.01V39.59H21.141C20.681 39.59 20.3243 39.67 20.071 39.83C19.8177 39.99 19.691 40.2267 19.691 40.54C19.691 40.84 19.7943 41.07 20.001 41.23C20.2143 41.39 20.4877 41.47 20.821 41.47ZM25.1433 39.4V42H24.4033V36.9H25.1233V37.84C25.2833 37.5333 25.4966 37.2967 25.7633 37.13C26.0299 36.9633 26.3233 36.88 26.6433 36.88H26.7833V37.59H26.6233C26.3633 37.59 26.1199 37.66 25.8933 37.8C25.6666 37.9333 25.4833 38.1333 25.3433 38.4C25.2099 38.6667 25.1433 39 25.1433 39.4ZM29.5443 42.13C29.0443 42.13 28.611 42.02 28.2443 41.8C27.8843 41.58 27.6043 41.27 27.4043 40.87C27.211 40.47 27.1143 39.9967 27.1143 39.45C27.1143 38.9367 27.2076 38.4767 27.3943 38.07C27.5876 37.6633 27.861 37.3467 28.2143 37.12C28.5743 36.8867 29.0043 36.77 29.5043 36.77C29.9776 36.77 30.3776 36.8767 30.7043 37.09C31.0376 37.3033 31.2876 37.6 31.4543 37.98C31.6276 38.3533 31.7143 38.79 31.7143 39.29V39.69H27.8743C27.9143 40.2567 28.0776 40.6933 28.3643 41C28.6576 41.3 29.051 41.45 29.5443 41.45C29.871 41.45 30.1476 41.3933 30.3743 41.28C30.601 41.16 30.751 41.0033 30.8243 40.81H31.6043C31.4843 41.2167 31.2376 41.54 30.8643 41.78C30.491 42.0133 30.051 42.13 29.5443 42.13ZM29.5043 37.45C29.0443 37.45 28.6743 37.5933 28.3943 37.88C28.1143 38.1667 27.9443 38.5567 27.8843 39.05H30.9643C30.951 38.5767 30.821 38.1933 30.5743 37.9C30.3276 37.6 29.971 37.45 29.5043 37.45Z" fill="#737373"/>
</svg>
