<svg width="30" height="36" viewBox="0 0 30 36" fill="none" xmlns="http://www.w3.org/2000/svg">
<path d="M9.95175 25.1066V17.8638L7.8414 18.5246V17.0086L11.6299 15.9203V25.1066H9.95175Z" fill="white"/>
<path d="M18.0157 25.3009C17.3037 25.3009 16.6808 25.1109 16.1468 24.7308C15.6129 24.3421 15.1976 23.7979 14.901 23.0983C14.6128 22.39 14.4687 21.5564 14.4687 20.5976C14.4687 19.6475 14.6128 18.8182 14.901 18.1099C15.1976 17.4016 15.6129 16.8575 16.1468 16.4774C16.6808 16.0887 17.3037 15.8943 18.0157 15.8943C18.7276 15.8943 19.3505 16.0887 19.8845 16.4774C20.4184 16.8575 20.8295 17.4016 21.1176 18.1099C21.4143 18.8182 21.5626 19.6475 21.5626 20.5976C21.5626 21.5564 21.4143 22.39 21.1176 23.0983C20.8295 23.7979 20.4184 24.3421 19.8845 24.7308C19.3505 25.1109 18.7276 25.3009 18.0157 25.3009ZM18.0157 23.772C18.575 23.772 19.02 23.4913 19.3505 22.9298C19.6895 22.3684 19.859 21.591 19.859 20.5976C19.859 19.6043 19.6895 18.8269 19.3505 18.2654C19.02 17.704 18.575 17.4232 18.0157 17.4232C17.4563 17.4232 17.0071 17.704 16.6681 18.2654C16.3375 18.8269 16.1723 19.6043 16.1723 20.5976C16.1723 21.591 16.3375 22.3684 16.6681 22.9298C17.0071 23.4913 17.4563 23.772 18.0157 23.772Z" fill="white"/>
<path fill-rule="evenodd" clip-rule="evenodd" d="M10.9752 1.82981L13.8238 5.08354C12.6404 5.28009 11.3825 5.59107 10.1692 6.00223C8.27359 6.64464 6.39691 7.5618 5.07867 8.74672C2.55621 11.0141 0.854623 14.0797 0.24718 17.4511C-0.360266 20.8226 0.161683 24.3043 1.7292 27.3371C3.29672 30.3699 5.81884 32.7778 8.89053 34.174C11.9622 35.5703 15.4052 35.8739 18.6665 35.0361C21.9279 34.1984 24.8184 32.2678 26.8737 29.5545C28.9291 26.8412 30.0301 23.5026 29.9999 20.0749C29.995 19.5233 29.5523 19.0801 29.011 19.0851C28.4698 19.09 28.0349 19.5412 28.0398 20.0929C28.066 23.0726 27.1089 25.9749 25.3221 28.3337C23.5354 30.6924 21.0226 32.3707 18.1875 33.099C15.3523 33.8273 12.3592 33.5633 9.68896 32.3495C7.01869 31.1357 4.82615 29.0425 3.46347 26.406C2.10079 23.7696 1.64705 20.7428 2.17511 17.8119C2.70318 14.881 4.1824 12.2161 6.37523 10.245C7.41463 9.31072 9.01304 8.49935 10.7877 7.89793C11.646 7.60708 12.5244 7.37243 13.3699 7.19844L10.9762 9.99789L12.4539 11.3104L16.5546 6.5147C16.8791 6.13523 16.8758 5.56899 16.547 5.19342L12.4377 0.499756L10.9752 1.82981ZM16.6857 1.75779L19.9012 5.83222L16.6808 9.59133L18.1573 10.9053L21.918 6.51551C22.2306 6.15068 22.2413 5.6099 21.9434 5.2325L18.2131 0.505707L16.6857 1.75779Z" fill="white"/>
</svg>
