<svg width="40" height="39" viewBox="0 0 40 39" fill="none" xmlns="http://www.w3.org/2000/svg">
<path fill-rule="evenodd" clip-rule="evenodd" d="M20.0259 3.05969C16.5064 3.05969 13.0599 6.48038 13.0599 9.99984C13.0599 13.5193 16.4806 16.9916 20.0001 16.9916C23.5195 16.9916 26.9918 13.5451 26.9918 10.0256C26.9918 6.50618 23.5453 3.05969 20.0259 3.05969ZM11.6667 9.99984C11.6667 5.39746 15.3977 1.6665 20.0001 1.6665C24.6025 1.6665 28.3334 5.39746 28.3334 9.99984C28.3334 14.6022 24.6025 18.3332 20.0001 18.3332C15.3977 18.3332 11.6667 14.6022 11.6667 9.99984ZM19.0971 6.31047C19.0971 5.76901 19.4844 5.38167 20.0259 5.38167C20.5673 5.38167 20.9547 5.76901 20.9547 6.31047C20.9547 6.85192 20.5673 7.23926 20.0259 7.23926C19.4844 7.23926 19.0971 6.85192 19.0971 6.31047ZM20.0259 9.09685C20.5673 9.09685 20.7027 9.48418 20.7027 10.0256V13.9472C20.7027 14.4887 20.5415 14.9018 20.0001 14.9018C19.4586 14.9018 19.3322 14.4887 19.3322 13.9472V10.0256C19.3322 9.48418 19.4844 9.09685 20.0259 9.09685Z" fill="white"/>
<path d="M11.58 36H9.948V27.648H11.58V36ZM14.5933 32.352V36H13.0693V29.796H14.5333V30.528C14.9813 29.92 15.6053 29.616 16.4053 29.616C17.0773 29.616 17.6093 29.848 18.0013 30.312C18.3933 30.776 18.5893 31.388 18.5893 32.148V36H17.0653V32.376C17.0653 31.952 16.9653 31.616 16.7653 31.368C16.5733 31.112 16.2773 30.984 15.8773 30.984C15.5173 30.984 15.2133 31.108 14.9653 31.356C14.7173 31.596 14.5933 31.928 14.5933 32.352ZM19.298 29.796H20.306V29.436C20.306 28.772 20.49 28.252 20.858 27.876C21.234 27.492 21.75 27.3 22.406 27.3H23.054V28.62H22.718C22.43 28.62 22.21 28.704 22.058 28.872C21.906 29.04 21.83 29.264 21.83 29.544V29.796H23.054V31.116H21.83V36H20.306V31.116H19.298V29.796ZM26.5322 36.18C25.9242 36.18 25.3842 36.04 24.9122 35.76C24.4482 35.48 24.0842 35.096 23.8202 34.608C23.5562 34.112 23.4242 33.54 23.4242 32.892C23.4242 32.244 23.5562 31.676 23.8202 31.188C24.0842 30.692 24.4482 30.308 24.9122 30.036C25.3842 29.756 25.9242 29.616 26.5322 29.616C27.1402 29.616 27.6762 29.756 28.1402 30.036C28.6122 30.308 28.9802 30.692 29.2442 31.188C29.5082 31.676 29.6402 32.244 29.6402 32.892C29.6402 33.54 29.5082 34.112 29.2442 34.608C28.9802 35.096 28.6122 35.48 28.1402 35.76C27.6762 36.04 27.1402 36.18 26.5322 36.18ZM26.5322 34.824C26.9962 34.824 27.3722 34.648 27.6602 34.296C27.9482 33.944 28.0922 33.476 28.0922 32.892C28.0922 32.308 27.9482 31.844 27.6602 31.5C27.3722 31.148 26.9962 30.972 26.5322 30.972C26.0682 30.972 25.6922 31.148 25.4042 31.5C25.1162 31.844 24.9722 32.308 24.9722 32.892C24.9722 33.476 25.1162 33.944 25.4042 34.296C25.6922 34.648 26.0682 34.824 26.5322 34.824Z" fill="white"/>
</svg>
