<svg width="40" height="41" viewBox="0 0 40 41" fill="none" xmlns="http://www.w3.org/2000/svg">
<path fill-rule="evenodd" clip-rule="evenodd" d="M19.1667 9.1665L19.1667 1.6665H20.8334L20.8334 9.1665L28.3334 9.1665V10.8332L20.8334 10.8332L20.8334 18.3332H19.1667L19.1667 10.8332L11.6667 10.8332V9.1665L19.1667 9.1665Z" fill="white"/>
<path d="M2.508 38H0.948V29.648H2.772L5.4 33.92L7.968 29.648H9.792V38H8.22V31.94L5.364 36.632L2.508 31.952V38ZM12.0084 40.46L13.0284 38L10.5924 31.796H12.3324L13.8684 36.224L15.3804 31.796H17.0244L13.6404 40.46H12.0084ZM26.1639 36.572V38H20.2839V29.648H21.9159V36.572H26.1639ZM27.9233 31.076C27.6673 31.076 27.4433 30.984 27.2513 30.8C27.0673 30.616 26.9753 30.392 26.9753 30.128C26.9753 29.864 27.0673 29.64 27.2513 29.456C27.4433 29.272 27.6673 29.18 27.9233 29.18C28.1793 29.18 28.3993 29.272 28.5833 29.456C28.7753 29.64 28.8713 29.864 28.8713 30.128C28.8713 30.392 28.7753 30.616 28.5833 30.8C28.3993 30.984 28.1793 31.076 27.9233 31.076ZM27.1553 38V31.796H28.6793V38H27.1553ZM32.3505 38.18C31.5825 38.18 30.9545 38.004 30.4665 37.652C29.9865 37.292 29.7065 36.824 29.6265 36.248H31.0905C31.1305 36.432 31.2625 36.592 31.4865 36.728C31.7105 36.864 31.9865 36.932 32.3145 36.932C32.6345 36.932 32.8865 36.872 33.0705 36.752C33.2625 36.624 33.3585 36.456 33.3585 36.248C33.3585 36.072 33.2865 35.924 33.1425 35.804C32.9985 35.684 32.7465 35.6 32.3865 35.552L31.4865 35.432C30.8945 35.352 30.4545 35.16 30.1665 34.856C29.8785 34.544 29.7345 34.14 29.7345 33.644C29.7345 33.236 29.8425 32.88 30.0585 32.576C30.2745 32.272 30.5705 32.036 30.9465 31.868C31.3225 31.7 31.7465 31.616 32.2185 31.616C32.7065 31.616 33.1305 31.7 33.4905 31.868C33.8505 32.036 34.1385 32.264 34.3545 32.552C34.5705 32.832 34.7065 33.14 34.7625 33.476H33.3105C33.2545 33.284 33.1305 33.136 32.9385 33.032C32.7545 32.92 32.5225 32.864 32.2425 32.864C31.9385 32.864 31.6945 32.928 31.5105 33.056C31.3265 33.184 31.2345 33.352 31.2345 33.56C31.2345 33.736 31.3065 33.872 31.4505 33.968C31.5945 34.056 31.8345 34.124 32.1705 34.172L33.0585 34.292C33.6585 34.38 34.1105 34.596 34.4145 34.94C34.7185 35.284 34.8705 35.7 34.8705 36.188C34.8705 36.596 34.7585 36.948 34.5345 37.244C34.3185 37.54 34.0185 37.772 33.6345 37.94C33.2585 38.1 32.8305 38.18 32.3505 38.18ZM38.1836 38.048C37.5596 38.048 37.0756 37.88 36.7316 37.544C36.3956 37.2 36.2276 36.7 36.2276 36.044V33.116H35.2196V31.796H36.2276V29.912C36.7556 29.888 37.2636 29.804 37.7516 29.66V31.796H38.9756V33.116H37.7516V35.876C37.7516 36.156 37.8196 36.368 37.9556 36.512C38.0916 36.656 38.2836 36.728 38.5316 36.728H38.9756V38.048H38.1836Z" fill="white"/>
</svg>
