<svg width="87" height="30" viewBox="0 0 87 30" fill="none" xmlns="http://www.w3.org/2000/svg">
<rect width="87" height="30" rx="2" fill="white"/>
<path d="M30.3756 14.4659C30.9266 14.8753 30.9108 15.7053 30.3447 16.0934L22.5655 21.4267C21.9019 21.8817 21 21.4066 21 20.602L21 9.48879C21 8.66682 21.9366 8.19588 22.5964 8.68609L30.3756 14.4659Z" fill="black"/>
<path d="M43.606 20V10.256H47.456C48.6787 10.256 49.626 10.5547 50.298 11.152C50.97 11.7493 51.306 12.538 51.306 13.518C51.306 14.5073 50.97 15.3007 50.298 15.898C49.626 16.4953 48.6787 16.794 47.456 16.794H45.51V20H43.606ZM45.51 15.142H47.204C47.9507 15.142 48.4967 15.002 48.842 14.722C49.1967 14.442 49.374 14.0407 49.374 13.518C49.374 13.0047 49.1967 12.608 48.842 12.328C48.4967 12.048 47.9507 11.908 47.204 11.908H45.51V15.142ZM52.4572 20V9.85H54.2352V20H52.4572ZM57.8463 20.21C57.0903 20.21 56.4836 20.0047 56.0263 19.594C55.5783 19.174 55.3543 18.6187 55.3543 17.928C55.3543 17.1813 55.6249 16.598 56.1663 16.178C56.7076 15.758 57.4636 15.548 58.4343 15.548H59.9043V15.282C59.9043 14.834 59.7829 14.512 59.5403 14.316C59.2976 14.1107 58.9709 14.008 58.5603 14.008C58.2056 14.008 57.9163 14.078 57.6923 14.218C57.4683 14.358 57.3283 14.5213 57.2723 14.708H55.5643C55.6856 14.092 56.0123 13.5787 56.5443 13.168C57.0763 12.7573 57.7669 12.552 58.6163 12.552C59.5589 12.552 60.3009 12.79 60.8423 13.266C61.3836 13.7327 61.6543 14.4653 61.6543 15.464V20H60.0163V19.104C59.7829 19.4867 59.4656 19.7667 59.0643 19.944C58.6723 20.1213 58.2663 20.21 57.8463 20.21ZM58.2943 18.782C58.5463 18.782 58.7936 18.726 59.0363 18.614C59.2883 18.502 59.4936 18.3387 59.6523 18.124C59.8203 17.9 59.9043 17.62 59.9043 17.284V16.822H58.5183C58.0609 16.822 57.7063 16.9107 57.4543 17.088C57.2116 17.256 57.0903 17.4987 57.0903 17.816C57.0903 18.1333 57.2023 18.376 57.4263 18.544C57.6503 18.7027 57.9396 18.782 58.2943 18.782ZM63.776 22.87L64.966 20L62.124 12.762H64.154L65.946 17.928L67.71 12.762H69.628L65.68 22.87H63.776Z" fill="black"/>
</svg>
